<svg width="650" height="517" viewBox="0 0 650 517" fill="none" xmlns="http://www.w3.org/2000/svg">
<path fill-rule="evenodd" clip-rule="evenodd" d="M34.16 234.893C26.8788 233.102 21.2641 233.05 17.3533 230.435C11.9107 226.805 4.15027 221.638 3.61333 216.482C0.233067 184.242 -1.62626 151.799 6.19147 119.763C16.8112 76.3509 45.0408 44.8776 77.0355 16.1482C82.15 11.5493 88.7751 8.34612 95.1341 5.49199C115.665 -3.66948 132.582 2.58052 143.369 22.3146C157.691 48.5027 157.983 76.804 156.89 105.492C155.682 137.071 146.989 166.779 136.141 196.169C132.974 204.711 132.521 214.237 132.146 224.153C159.755 186.549 196.173 161.517 238.182 144.273C236.979 123.247 241.349 117.409 264.135 109.82C263.927 106.226 263.599 102.435 263.521 98.6325C263.281 85.6429 278.723 69.4819 295.125 75.1112C323.485 84.8195 344.807 102.215 362.198 125.857C365.354 130.148 370.443 134.57 375.406 135.742C436.016 150.106 484.204 181.821 517.3 235.273C517.836 236.163 518.899 236.731 522.862 236.616C519.206 219.876 517.216 202.543 511.545 186.523C495.321 140.716 488.889 94.3044 498.534 46.3364C499.899 39.5708 502.904 33.0083 505.909 26.7271C518.425 0.659053 538.518 -7.38229 562.117 8.83105C609.42 41.3204 643.846 83.7577 648.44 143.818C650.185 166.698 648.617 189.844 648.528 212.859C648.476 222.468 642.919 227.911 634.356 230.635C629.565 232.156 624.596 233.062 617.278 234.838C623.033 242.067 627.887 248.354 632.95 254.437C638.705 261.364 640.179 267.989 635.809 276.843C619.298 310.307 602.934 344.229 571.892 366.677C557.793 376.885 552.402 387.75 553.881 404.234C554.605 412.297 552.897 420.594 552.173 428.786C550.204 451.259 535.194 464.005 517.479 474.379C490.026 490.442 459.375 497.458 428.646 502.963C395.599 508.885 362.214 515 328.807 516.151C300.583 517.114 271.859 512.609 243.838 507.776C213.895 502.604 184.442 494.583 154.994 486.973C146.056 484.666 137.587 480.036 129.317 475.708C105.895 463.468 90.5766 445.91 91.2073 417.541C91.5042 404.27 93.6709 389.52 88.7646 378.12C84.1344 367.344 70.9993 360.385 62.1966 351.193C40.4939 328.516 26.7593 300.74 14.322 272.48C12.3272 267.98 15.6969 260.011 18.598 254.756C22.275 248.079 28.0094 242.542 34.1606 234.901L34.16 234.893ZM252.507 161.825C196.252 182.132 155.903 217.409 132.637 270.831C112.179 317.789 108.741 367.279 112.007 417.911C113.173 435.957 121.153 447.113 135.772 455.14C142.939 459.077 150.168 463.505 157.917 465.692C183.819 472.973 209.667 481.099 236.095 485.599C266.819 490.828 298.225 495.745 329.199 495C362.573 494.203 395.944 487.614 429.021 481.812C458.267 476.682 487.548 469.745 512.313 452.291C520.266 446.692 529.933 436.671 530.261 428.338C531.558 394.9 533.069 360.78 527.959 327.926C515.475 247.41 471.085 190.646 393.093 162.432C389.598 161.172 385.926 160.453 385.124 160.24C382.077 165.906 379.869 170.037 377.65 174.157C374.014 170.917 369.572 168.235 366.853 164.345C355.243 147.818 345.879 129.323 332.295 114.705C322.363 104.027 307.326 97.9552 294.191 90.4699C287.936 86.9021 281.843 88.0428 279.175 95.8553C276.712 103.074 279.118 107.996 286.837 109.871C287.952 110.147 288.936 111.054 290.056 111.262C295.962 112.387 300.389 115.814 297.202 121.559C295.561 124.517 289.499 126.075 285.301 126.351C278.082 126.819 270.634 124.799 263.551 125.783C259.671 126.314 256.359 130.851 252.786 133.585C255.681 136.887 257.968 141.715 261.603 143.163C269.754 146.403 278.582 147.965 286.999 150.168C286.333 160.247 285.937 159.309 276.083 163.429C271.135 165.507 267.906 171.7 263.89 176.033C268.213 178.512 272.546 183.116 276.817 183.054C289.244 182.851 301.629 180.267 314.077 179.752C317.624 179.601 321.306 183.335 324.921 185.293C322.317 188.054 320.025 192.762 317.035 193.236C303.587 195.455 289.947 197.684 276.374 197.647C253.723 197.59 245.473 185.554 252.51 161.819L252.507 161.825ZM85.1067 298.639C88.2525 278.373 88.9973 261.873 93.716 246.612C98.1431 232.305 105.117 218.081 113.981 206.019C127.153 188.06 133.643 168.013 138.429 147.035C146.268 112.805 150.101 78.4253 139.242 44.0293C128.08 8.62266 110.69 3.46132 82.0178 27.3987C24.7992 75.1533 3.63784 136.341 14.8352 209.492C15.8195 215.929 18.7778 218.768 25.1477 219.95C34.5332 221.706 43.7104 224.518 52.9397 226.867C52.4762 228.867 52.5387 229.779 52.1116 230.341C45.5127 239.06 38.9033 247.773 32.2102 256.429C23.3977 267.841 26.8248 284.741 40.6477 289.148C55.8984 294.007 72.0744 295.976 85.1064 298.643L85.1067 298.639ZM596.84 227.259C607.366 224.556 616.2 221.519 625.283 220.186C633.673 218.962 636.694 214.498 636.731 206.91C636.85 185.488 638.699 163.879 636.564 142.68C631.189 89.6284 600.449 51.2737 559.537 20.5497C539.959 5.84172 525.876 10.9924 516.225 33.2893C505.856 57.2107 503.621 82.352 506.543 107.972C510.814 145.483 518.98 181.243 541.846 213.155C559.048 237.191 568.21 265.176 561.652 299.571C579.111 296.039 594.907 294.133 609.83 289.461C624.523 284.847 628.267 268.211 619.007 256.227C611.892 247.044 604.881 237.784 596.84 227.257V227.259Z" fill="white"/>
<path fill-rule="evenodd" clip-rule="evenodd" d="M376.053 345.533C375.574 376.669 349.673 405.747 322.392 408.872C318.324 409.341 313.856 408.268 309.84 407.049C287.595 400.315 273.059 384.94 265.976 363.518C257.783 338.769 268.715 317.882 292.888 307.565C314.675 298.253 335.528 300.299 355.581 312.143C369.54 320.383 375.981 333.101 376.053 345.533Z" fill="white"/>
<path fill-rule="evenodd" clip-rule="evenodd" d="M231.76 304.96C226.041 319.309 222.583 333.564 215.145 345.304C206.244 359.387 190.5 358.413 179.703 345.46C163.072 325.507 163.135 283.996 179.807 264.163C190.635 251.288 206.375 250.434 215.26 264.574C222.646 276.345 226.078 290.591 231.76 304.96Z" fill="white"/>
<path fill-rule="evenodd" clip-rule="evenodd" d="M471.267 304.827C465.584 319.191 462.142 333.447 454.74 345.207C445.86 359.343 430.115 358.462 419.297 345.571C402.631 325.717 402.6 284.202 419.24 264.274C430.037 251.342 445.776 250.389 454.683 264.477C462.105 276.227 465.573 290.467 471.267 304.827Z" fill="white"/>
</svg>
